<mxfile host="app.diagrams.net" agent="Mozilla/5.0 (Windows NT 10.0; Win64; x64) AppleWebKit/537.36 (KHTML, like Gecko) Chrome/131.0.0.0 Safari/537.36" version="25.0.3">
  <diagram id="Fgq1kFbda6Qcx7QnJO26" name="gml-raptor objects">
    <mxGraphModel dx="2259" dy="745" grid="1" gridSize="10" guides="1" tooltips="1" connect="1" arrows="1" fold="1" page="1" pageScale="1" pageWidth="827" pageHeight="1169" background="#000000" math="0" shadow="0">
      <root>
        <mxCell id="0" />
        <mxCell id="1" parent="0" />
        <mxCell id="1dqqtLo0ICrxFf-IUxEB-3" value="" style="edgeStyle=orthogonalEdgeStyle;rounded=1;orthogonalLoop=1;jettySize=auto;html=1;fontFamily=Helvetica;fontSize=12;fontColor=#FFFFFF;strokeColor=#FFFF66;strokeWidth=2;exitX=0.5;exitY=0;exitDx=0;exitDy=0;" parent="1" source="1dqqtLo0ICrxFf-IUxEB-1" target="1dqqtLo0ICrxFf-IUxEB-2" edge="1">
          <mxGeometry relative="1" as="geometry" />
        </mxCell>
        <mxCell id="1dqqtLo0ICrxFf-IUxEB-7" style="edgeStyle=orthogonalEdgeStyle;rounded=1;orthogonalLoop=1;jettySize=auto;html=1;exitX=0.5;exitY=0;exitDx=0;exitDy=0;entryX=0.5;entryY=1;entryDx=0;entryDy=0;fontFamily=Helvetica;fontSize=12;fontColor=#FFFFFF;strokeColor=#FFFF66;strokeWidth=2;" parent="1" source="1dqqtLo0ICrxFf-IUxEB-1" target="1dqqtLo0ICrxFf-IUxEB-6" edge="1">
          <mxGeometry relative="1" as="geometry" />
        </mxCell>
        <mxCell id="1dqqtLo0ICrxFf-IUxEB-8" style="edgeStyle=orthogonalEdgeStyle;rounded=1;orthogonalLoop=1;jettySize=auto;html=1;exitX=0.5;exitY=0;exitDx=0;exitDy=0;entryX=0.5;entryY=1;entryDx=0;entryDy=0;fontFamily=Helvetica;fontSize=12;fontColor=#FFFFFF;strokeColor=#FFFF66;strokeWidth=2;" parent="1" source="1dqqtLo0ICrxFf-IUxEB-1" target="1dqqtLo0ICrxFf-IUxEB-5" edge="1">
          <mxGeometry relative="1" as="geometry" />
        </mxCell>
        <mxCell id="JD-5__aoNmLxi8L6_J8Z-2" style="edgeStyle=orthogonalEdgeStyle;rounded=1;orthogonalLoop=1;jettySize=auto;html=1;exitX=0.5;exitY=0;exitDx=0;exitDy=0;entryX=0.5;entryY=1;entryDx=0;entryDy=0;strokeColor=#FFFF66;strokeWidth=2;align=center;verticalAlign=middle;fontFamily=Helvetica;fontSize=12;fontColor=#FFFFFF;labelBackgroundColor=default;endArrow=classic;" edge="1" parent="1" source="1dqqtLo0ICrxFf-IUxEB-1" target="JD-5__aoNmLxi8L6_J8Z-1">
          <mxGeometry relative="1" as="geometry" />
        </mxCell>
        <mxCell id="JD-5__aoNmLxi8L6_J8Z-9" style="edgeStyle=orthogonalEdgeStyle;shape=connector;rounded=1;orthogonalLoop=1;jettySize=auto;html=1;exitX=0.5;exitY=0;exitDx=0;exitDy=0;entryX=0.5;entryY=1;entryDx=0;entryDy=0;strokeColor=#FFFF66;strokeWidth=2;align=center;verticalAlign=middle;fontFamily=Helvetica;fontSize=12;fontColor=#FFFFFF;labelBackgroundColor=default;endArrow=classic;" edge="1" parent="1" source="1dqqtLo0ICrxFf-IUxEB-1" target="JD-5__aoNmLxi8L6_J8Z-7">
          <mxGeometry relative="1" as="geometry" />
        </mxCell>
        <mxCell id="JD-5__aoNmLxi8L6_J8Z-10" style="edgeStyle=orthogonalEdgeStyle;shape=connector;rounded=1;orthogonalLoop=1;jettySize=auto;html=1;exitX=0.5;exitY=0;exitDx=0;exitDy=0;entryX=0.5;entryY=1;entryDx=0;entryDy=0;strokeColor=#FFFF66;strokeWidth=2;align=center;verticalAlign=middle;fontFamily=Helvetica;fontSize=12;fontColor=#FFFFFF;labelBackgroundColor=default;endArrow=classic;" edge="1" parent="1" source="1dqqtLo0ICrxFf-IUxEB-1" target="JD-5__aoNmLxi8L6_J8Z-8">
          <mxGeometry relative="1" as="geometry" />
        </mxCell>
        <mxCell id="1dqqtLo0ICrxFf-IUxEB-1" value="&lt;font face=&quot;Lucida Console&quot;&gt;_raptorBase&lt;/font&gt;" style="rounded=1;whiteSpace=wrap;html=1;fillColor=#003300;strokeColor=#FFFF00;fontColor=#FFFFFF;strokeWidth=6;" parent="1" vertex="1">
          <mxGeometry x="250" y="1060" width="120" height="60" as="geometry" />
        </mxCell>
        <mxCell id="1dqqtLo0ICrxFf-IUxEB-2" value="&lt;font face=&quot;Lucida Console&quot;&gt;GameStarter&lt;/font&gt;" style="rounded=1;whiteSpace=wrap;html=1;fillColor=#003300;strokeColor=#33FF33;fontColor=#FFFFFF;strokeWidth=2;" parent="1" vertex="1">
          <mxGeometry x="530" y="940" width="120" height="60" as="geometry" />
        </mxCell>
        <mxCell id="1dqqtLo0ICrxFf-IUxEB-18" style="edgeStyle=orthogonalEdgeStyle;shape=connector;rounded=1;orthogonalLoop=1;jettySize=auto;html=1;exitX=0.5;exitY=0;exitDx=0;exitDy=0;entryX=0.5;entryY=1;entryDx=0;entryDy=0;labelBackgroundColor=default;fontFamily=Helvetica;fontSize=12;fontColor=#FFFFFF;endArrow=classic;strokeColor=#FFFF66;strokeWidth=2;startArrow=none;" parent="1" source="1dqqtLo0ICrxFf-IUxEB-4" target="1dqqtLo0ICrxFf-IUxEB-17" edge="1">
          <mxGeometry relative="1" as="geometry" />
        </mxCell>
        <mxCell id="ktiXZNZTzeHC1HTTGXHM-2" style="edgeStyle=orthogonalEdgeStyle;rounded=1;orthogonalLoop=1;jettySize=auto;html=1;exitX=0.5;exitY=0;exitDx=0;exitDy=0;entryX=0.5;entryY=1;entryDx=0;entryDy=0;fontSize=12;strokeColor=#FFFF66;fontColor=#FFFFFF;strokeWidth=2;" parent="1" source="1dqqtLo0ICrxFf-IUxEB-4" target="ktiXZNZTzeHC1HTTGXHM-1" edge="1">
          <mxGeometry relative="1" as="geometry" />
        </mxCell>
        <mxCell id="1dqqtLo0ICrxFf-IUxEB-4" value="&lt;font face=&quot;Lucida Console&quot;&gt;Saveable&lt;/font&gt;" style="rounded=1;whiteSpace=wrap;html=1;fillColor=#003300;strokeColor=#FFFF00;strokeWidth=6;fontColor=#FFFFFF;" parent="1" vertex="1">
          <mxGeometry x="250" y="820" width="120" height="60" as="geometry" />
        </mxCell>
        <mxCell id="1dqqtLo0ICrxFf-IUxEB-5" value="&lt;font face=&quot;Lucida Console&quot;&gt;RoomController&lt;/font&gt;" style="rounded=1;whiteSpace=wrap;html=1;fillColor=#003300;strokeColor=#33FF33;fontColor=#FFFFFF;strokeWidth=2;" parent="1" vertex="1">
          <mxGeometry x="670" y="940" width="120" height="60" as="geometry" />
        </mxCell>
        <mxCell id="1dqqtLo0ICrxFf-IUxEB-11" value="" style="edgeStyle=orthogonalEdgeStyle;shape=connector;rounded=1;orthogonalLoop=1;jettySize=auto;html=1;labelBackgroundColor=default;fontFamily=Helvetica;fontSize=12;fontColor=#FFFFFF;endArrow=classic;strokeColor=#FFFF66;strokeWidth=2;exitX=0.5;exitY=0;exitDx=0;exitDy=0;" parent="1" source="1dqqtLo0ICrxFf-IUxEB-6" target="1dqqtLo0ICrxFf-IUxEB-10" edge="1">
          <mxGeometry relative="1" as="geometry" />
        </mxCell>
        <mxCell id="1dqqtLo0ICrxFf-IUxEB-6" value="&lt;font face=&quot;Lucida Console&quot;&gt;GameController&lt;/font&gt;" style="rounded=1;whiteSpace=wrap;html=1;fillColor=#003300;strokeColor=#33FF33;fontColor=#FFFFFF;strokeWidth=2;" parent="1" vertex="1">
          <mxGeometry x="390" y="940" width="120" height="60" as="geometry" />
        </mxCell>
        <mxCell id="1dqqtLo0ICrxFf-IUxEB-10" value="&lt;font face=&quot;Lucida Console&quot;&gt;Browser&lt;br&gt;GameController&lt;/font&gt;" style="rounded=1;html=1;fillColor=#003300;strokeColor=#33FF33;fontColor=#FFFFFF;strokeWidth=2;whiteSpace=wrap;" parent="1" vertex="1">
          <mxGeometry x="390" y="820" width="120" height="60" as="geometry" />
        </mxCell>
        <mxCell id="1dqqtLo0ICrxFf-IUxEB-20" value="" style="edgeStyle=orthogonalEdgeStyle;shape=connector;rounded=1;orthogonalLoop=1;jettySize=auto;html=1;labelBackgroundColor=default;fontFamily=Helvetica;fontSize=12;fontColor=#FFFFFF;endArrow=classic;strokeColor=#FFFF66;strokeWidth=2;exitX=0.5;exitY=0;exitDx=0;exitDy=0;" parent="1" source="1dqqtLo0ICrxFf-IUxEB-17" target="1dqqtLo0ICrxFf-IUxEB-19" edge="1">
          <mxGeometry relative="1" as="geometry" />
        </mxCell>
        <mxCell id="1dqqtLo0ICrxFf-IUxEB-17" value="&lt;font face=&quot;Lucida Console&quot;&gt;LGTextObject&lt;/font&gt;" style="rounded=1;whiteSpace=wrap;html=1;fillColor=#003300;strokeColor=#FFFF00;fontColor=#FFFFFF;strokeWidth=6;" parent="1" vertex="1">
          <mxGeometry x="250" y="700" width="120" height="60" as="geometry" />
        </mxCell>
        <mxCell id="1dqqtLo0ICrxFf-IUxEB-25" style="edgeStyle=orthogonalEdgeStyle;shape=connector;rounded=1;orthogonalLoop=1;jettySize=auto;html=1;exitX=0.5;exitY=0;exitDx=0;exitDy=0;entryX=0.5;entryY=1;entryDx=0;entryDy=0;labelBackgroundColor=default;fontFamily=Helvetica;fontSize=12;fontColor=#FFFFFF;endArrow=classic;strokeColor=#FFFF66;strokeWidth=2;" parent="1" source="1dqqtLo0ICrxFf-IUxEB-19" target="1dqqtLo0ICrxFf-IUxEB-23" edge="1">
          <mxGeometry relative="1" as="geometry" />
        </mxCell>
        <mxCell id="hVP8yvyoXI02nTNWTHge-5" style="edgeStyle=orthogonalEdgeStyle;shape=connector;rounded=1;orthogonalLoop=1;jettySize=auto;html=1;exitX=0.5;exitY=0;exitDx=0;exitDy=0;entryX=0.5;entryY=1;entryDx=0;entryDy=0;labelBackgroundColor=default;strokeColor=#FFFF66;strokeWidth=2;align=center;verticalAlign=middle;fontFamily=Helvetica;fontSize=12;fontColor=#FFFFFF;endArrow=classic;" parent="1" source="1dqqtLo0ICrxFf-IUxEB-19" target="hVP8yvyoXI02nTNWTHge-1" edge="1">
          <mxGeometry relative="1" as="geometry" />
        </mxCell>
        <mxCell id="JD-5__aoNmLxi8L6_J8Z-4" style="edgeStyle=orthogonalEdgeStyle;shape=connector;rounded=1;orthogonalLoop=1;jettySize=auto;html=1;exitX=0.5;exitY=0;exitDx=0;exitDy=0;entryX=0.5;entryY=1;entryDx=0;entryDy=0;strokeColor=#FFFF66;strokeWidth=2;align=center;verticalAlign=middle;fontFamily=Helvetica;fontSize=12;fontColor=#FFFFFF;labelBackgroundColor=default;endArrow=classic;" edge="1" parent="1" source="1dqqtLo0ICrxFf-IUxEB-19" target="1dqqtLo0ICrxFf-IUxEB-29">
          <mxGeometry relative="1" as="geometry" />
        </mxCell>
        <mxCell id="JD-5__aoNmLxi8L6_J8Z-5" style="edgeStyle=orthogonalEdgeStyle;shape=connector;rounded=1;orthogonalLoop=1;jettySize=auto;html=1;exitX=0.5;exitY=0;exitDx=0;exitDy=0;entryX=0.5;entryY=1;entryDx=0;entryDy=0;strokeColor=#FFFF66;strokeWidth=2;align=center;verticalAlign=middle;fontFamily=Helvetica;fontSize=12;fontColor=#FFFFFF;labelBackgroundColor=default;endArrow=classic;" edge="1" parent="1" source="1dqqtLo0ICrxFf-IUxEB-19" target="1dqqtLo0ICrxFf-IUxEB-31">
          <mxGeometry relative="1" as="geometry" />
        </mxCell>
        <mxCell id="JD-5__aoNmLxi8L6_J8Z-6" style="edgeStyle=orthogonalEdgeStyle;shape=connector;rounded=1;orthogonalLoop=1;jettySize=auto;html=1;exitX=0.5;exitY=0;exitDx=0;exitDy=0;entryX=0.5;entryY=1;entryDx=0;entryDy=0;strokeColor=#FFFF66;strokeWidth=2;align=center;verticalAlign=middle;fontFamily=Helvetica;fontSize=12;fontColor=#FFFFFF;labelBackgroundColor=default;endArrow=classic;" edge="1" parent="1" source="1dqqtLo0ICrxFf-IUxEB-19" target="m8_Jk6lmm-8KzowkxfMQ-1">
          <mxGeometry relative="1" as="geometry" />
        </mxCell>
        <mxCell id="1dqqtLo0ICrxFf-IUxEB-19" value="&lt;font face=&quot;Lucida Console&quot;&gt;_baseControl&lt;/font&gt;" style="rounded=1;whiteSpace=wrap;html=1;fillColor=#003300;strokeColor=#B266FF;fontColor=#FFFFFF;strokeWidth=2;" parent="1" vertex="1">
          <mxGeometry x="250" y="580" width="120" height="60" as="geometry" />
        </mxCell>
        <mxCell id="1dqqtLo0ICrxFf-IUxEB-23" value="&lt;font face=&quot;Lucida Console&quot;&gt;Tooltip&lt;/font&gt;" style="rounded=1;whiteSpace=wrap;html=1;fillColor=#003300;strokeColor=#33FF33;fontColor=#FFFFFF;strokeWidth=2;" parent="1" vertex="1">
          <mxGeometry x="669" y="460" width="120" height="60" as="geometry" />
        </mxCell>
        <mxCell id="1dqqtLo0ICrxFf-IUxEB-28" value="" style="edgeStyle=orthogonalEdgeStyle;shape=connector;rounded=1;orthogonalLoop=1;jettySize=auto;html=1;labelBackgroundColor=default;fontFamily=Helvetica;fontSize=12;fontColor=#FFFFFF;endArrow=classic;strokeColor=#FFFF66;strokeWidth=2;exitX=0.5;exitY=0;exitDx=0;exitDy=0;" parent="1" source="1dqqtLo0ICrxFf-IUxEB-24" target="1dqqtLo0ICrxFf-IUxEB-27" edge="1">
          <mxGeometry relative="1" as="geometry" />
        </mxCell>
        <mxCell id="1dqqtLo0ICrxFf-IUxEB-24" value="&lt;font face=&quot;Lucida Console&quot;&gt;Window&lt;/font&gt;" style="rounded=1;whiteSpace=wrap;html=1;fillColor=#003300;strokeColor=#33FF33;fontColor=#FFFFFF;strokeWidth=2;" parent="1" vertex="1">
          <mxGeometry x="-40" y="340" width="120" height="60" as="geometry" />
        </mxCell>
        <mxCell id="1dqqtLo0ICrxFf-IUxEB-27" value="&lt;font face=&quot;Lucida Console&quot;&gt;MessageBox&lt;br&gt;Window&lt;/font&gt;" style="rounded=1;whiteSpace=wrap;html=1;fillColor=#003300;strokeColor=#33FF33;fontColor=#FFFFFF;strokeWidth=2;" parent="1" vertex="1">
          <mxGeometry x="-40" y="220" width="120" height="60" as="geometry" />
        </mxCell>
        <mxCell id="1dqqtLo0ICrxFf-IUxEB-34" value="" style="edgeStyle=orthogonalEdgeStyle;shape=connector;rounded=1;orthogonalLoop=1;jettySize=auto;html=1;labelBackgroundColor=default;fontFamily=Helvetica;fontSize=12;fontColor=#FFFFFF;endArrow=classic;strokeColor=#FFFF66;strokeWidth=2;exitX=0.5;exitY=0;exitDx=0;exitDy=0;" parent="1" source="1dqqtLo0ICrxFf-IUxEB-29" target="1dqqtLo0ICrxFf-IUxEB-33" edge="1">
          <mxGeometry relative="1" as="geometry" />
        </mxCell>
        <mxCell id="1dqqtLo0ICrxFf-IUxEB-36" style="edgeStyle=orthogonalEdgeStyle;shape=connector;rounded=1;orthogonalLoop=1;jettySize=auto;html=1;exitX=0.5;exitY=0;exitDx=0;exitDy=0;entryX=0.5;entryY=1;entryDx=0;entryDy=0;labelBackgroundColor=default;fontFamily=Helvetica;fontSize=12;fontColor=#FFFFFF;endArrow=classic;strokeColor=#FFFF66;strokeWidth=2;" parent="1" source="1dqqtLo0ICrxFf-IUxEB-29" target="1dqqtLo0ICrxFf-IUxEB-35" edge="1">
          <mxGeometry relative="1" as="geometry" />
        </mxCell>
        <mxCell id="XNWoXiLgSCH48UPZ1F3W-2" style="edgeStyle=orthogonalEdgeStyle;rounded=1;orthogonalLoop=1;jettySize=auto;html=1;exitX=0.5;exitY=0;exitDx=0;exitDy=0;entryX=0.5;entryY=1;entryDx=0;entryDy=0;fontSize=12;strokeColor=#FFFF66;fontColor=#FFFFFF;strokeWidth=2;" parent="1" source="1dqqtLo0ICrxFf-IUxEB-29" target="XNWoXiLgSCH48UPZ1F3W-1" edge="1">
          <mxGeometry relative="1" as="geometry" />
        </mxCell>
        <mxCell id="hVP8yvyoXI02nTNWTHge-12" style="edgeStyle=orthogonalEdgeStyle;shape=connector;rounded=1;orthogonalLoop=1;jettySize=auto;html=1;exitX=0.5;exitY=0;exitDx=0;exitDy=0;entryX=0.5;entryY=1;entryDx=0;entryDy=0;labelBackgroundColor=default;strokeColor=#FFFF66;strokeWidth=2;align=center;verticalAlign=middle;fontFamily=Helvetica;fontSize=12;fontColor=#FFFFFF;endArrow=classic;" parent="1" source="1dqqtLo0ICrxFf-IUxEB-29" target="hVP8yvyoXI02nTNWTHge-11" edge="1">
          <mxGeometry relative="1" as="geometry" />
        </mxCell>
        <mxCell id="1dqqtLo0ICrxFf-IUxEB-29" value="&lt;font face=&quot;Lucida Console&quot;&gt;_baseClickable&lt;br&gt;Control&lt;br&gt;&lt;/font&gt;" style="rounded=1;whiteSpace=wrap;html=1;fillColor=#003300;strokeColor=#B266FF;fontColor=#FFFFFF;strokeWidth=2;" parent="1" vertex="1">
          <mxGeometry x="250" y="460" width="120" height="60" as="geometry" />
        </mxCell>
        <mxCell id="1dqqtLo0ICrxFf-IUxEB-31" value="&lt;font face=&quot;Lucida Console&quot;&gt;Label&lt;br&gt;&lt;/font&gt;" style="rounded=1;whiteSpace=wrap;html=1;fillColor=#003300;strokeColor=#33FF33;fontColor=#FFFFFF;strokeWidth=2;" parent="1" vertex="1">
          <mxGeometry x="390" y="460" width="120" height="60" as="geometry" />
        </mxCell>
        <mxCell id="1dqqtLo0ICrxFf-IUxEB-38" value="" style="edgeStyle=orthogonalEdgeStyle;shape=connector;rounded=1;orthogonalLoop=1;jettySize=auto;html=1;labelBackgroundColor=default;fontFamily=Helvetica;fontSize=12;fontColor=#FFFFFF;endArrow=classic;strokeColor=#FFFF66;strokeWidth=2;exitX=0.5;exitY=0;exitDx=0;exitDy=0;" parent="1" source="1dqqtLo0ICrxFf-IUxEB-33" target="1dqqtLo0ICrxFf-IUxEB-37" edge="1">
          <mxGeometry relative="1" as="geometry" />
        </mxCell>
        <mxCell id="1dqqtLo0ICrxFf-IUxEB-33" value="&lt;font face=&quot;Lucida Console&quot;&gt;TextButton&lt;br&gt;&lt;/font&gt;" style="rounded=1;whiteSpace=wrap;html=1;fillColor=#003300;strokeColor=#33FF33;fontColor=#FFFFFF;strokeWidth=2;" parent="1" vertex="1">
          <mxGeometry x="529" y="340" width="120" height="60" as="geometry" />
        </mxCell>
        <mxCell id="1dqqtLo0ICrxFf-IUxEB-35" value="&lt;font face=&quot;Lucida Console&quot;&gt;InputBox&lt;br&gt;&lt;/font&gt;" style="rounded=1;whiteSpace=wrap;html=1;fillColor=#003300;strokeColor=#33FF33;fontColor=#FFFFFF;strokeWidth=2;" parent="1" vertex="1">
          <mxGeometry x="390" y="340" width="120" height="60" as="geometry" />
        </mxCell>
        <mxCell id="1dqqtLo0ICrxFf-IUxEB-37" value="&lt;font face=&quot;Lucida Console&quot;&gt;ImageButton&lt;br&gt;&lt;/font&gt;" style="rounded=1;whiteSpace=wrap;html=1;fillColor=#003300;strokeColor=#33FF33;fontColor=#FFFFFF;strokeWidth=2;" parent="1" vertex="1">
          <mxGeometry x="529" y="220" width="120" height="60" as="geometry" />
        </mxCell>
        <mxCell id="JD-5__aoNmLxi8L6_J8Z-12" style="edgeStyle=orthogonalEdgeStyle;shape=connector;rounded=1;orthogonalLoop=1;jettySize=auto;html=1;exitX=0.5;exitY=0;exitDx=0;exitDy=0;entryX=0.5;entryY=1;entryDx=0;entryDy=0;strokeColor=#FFFF66;strokeWidth=2;align=center;verticalAlign=middle;fontFamily=Helvetica;fontSize=12;fontColor=#FFFFFF;labelBackgroundColor=default;endArrow=classic;" edge="1" parent="1" source="ktiXZNZTzeHC1HTTGXHM-1" target="JD-5__aoNmLxi8L6_J8Z-11">
          <mxGeometry relative="1" as="geometry" />
        </mxCell>
        <mxCell id="ktiXZNZTzeHC1HTTGXHM-1" value="&lt;font face=&quot;Lucida Console&quot;&gt;StatefulObject&lt;/font&gt;" style="rounded=1;whiteSpace=wrap;html=1;fillColor=#003300;strokeColor=#FFFF00;fontColor=#FFFFFF;strokeWidth=6;" parent="1" vertex="1">
          <mxGeometry x="99" y="700" width="120" height="60" as="geometry" />
        </mxCell>
        <mxCell id="XNWoXiLgSCH48UPZ1F3W-5" style="edgeStyle=orthogonalEdgeStyle;shape=connector;rounded=1;orthogonalLoop=1;jettySize=auto;html=1;exitX=0.5;exitY=0;exitDx=0;exitDy=0;entryX=0.5;entryY=1;entryDx=0;entryDy=0;labelBackgroundColor=default;strokeColor=#FFFF66;strokeWidth=2;align=center;verticalAlign=middle;fontFamily=Helvetica;fontSize=12;fontColor=#FFFFFF;endArrow=classic;" parent="1" source="XNWoXiLgSCH48UPZ1F3W-1" target="XNWoXiLgSCH48UPZ1F3W-3" edge="1">
          <mxGeometry relative="1" as="geometry" />
        </mxCell>
        <mxCell id="XNWoXiLgSCH48UPZ1F3W-6" style="edgeStyle=orthogonalEdgeStyle;shape=connector;rounded=1;orthogonalLoop=1;jettySize=auto;html=1;exitX=0.5;exitY=0;exitDx=0;exitDy=0;entryX=0.5;entryY=1;entryDx=0;entryDy=0;labelBackgroundColor=default;strokeColor=#FFFF66;strokeWidth=2;align=center;verticalAlign=middle;fontFamily=Helvetica;fontSize=12;fontColor=#FFFFFF;endArrow=classic;" parent="1" source="XNWoXiLgSCH48UPZ1F3W-1" target="XNWoXiLgSCH48UPZ1F3W-4" edge="1">
          <mxGeometry relative="1" as="geometry" />
        </mxCell>
        <mxCell id="XNWoXiLgSCH48UPZ1F3W-1" value="&lt;font face=&quot;Lucida Console&quot;&gt;_baseCheckable&lt;br&gt;Control&lt;br&gt;&lt;/font&gt;" style="rounded=1;whiteSpace=wrap;html=1;fillColor=#003300;strokeColor=#B266FF;fontColor=#FFFFFF;strokeWidth=2;" parent="1" vertex="1">
          <mxGeometry x="250" y="340" width="120" height="60" as="geometry" />
        </mxCell>
        <mxCell id="XNWoXiLgSCH48UPZ1F3W-3" value="&lt;font face=&quot;Lucida Console&quot;&gt;CheckBox&lt;br&gt;&lt;/font&gt;" style="rounded=1;whiteSpace=wrap;html=1;fillColor=#003300;strokeColor=#33FF33;fontColor=#FFFFFF;strokeWidth=2;" parent="1" vertex="1">
          <mxGeometry x="250" y="220" width="120" height="60" as="geometry" />
        </mxCell>
        <mxCell id="XNWoXiLgSCH48UPZ1F3W-4" value="&lt;font face=&quot;Lucida Console&quot;&gt;RadioButton&lt;br&gt;&lt;/font&gt;" style="rounded=1;whiteSpace=wrap;html=1;fillColor=#003300;strokeColor=#33FF33;fontColor=#FFFFFF;strokeWidth=2;" parent="1" vertex="1">
          <mxGeometry x="390" y="220" width="120" height="60" as="geometry" />
        </mxCell>
        <mxCell id="hVP8yvyoXI02nTNWTHge-7" style="edgeStyle=orthogonalEdgeStyle;shape=connector;rounded=1;orthogonalLoop=1;jettySize=auto;html=1;exitX=0.5;exitY=0;exitDx=0;exitDy=0;entryX=0.5;entryY=1;entryDx=0;entryDy=0;labelBackgroundColor=default;strokeColor=#FFFF66;strokeWidth=2;align=center;verticalAlign=middle;fontFamily=Helvetica;fontSize=12;fontColor=#FFFFFF;endArrow=classic;" parent="1" source="hVP8yvyoXI02nTNWTHge-1" target="hVP8yvyoXI02nTNWTHge-6" edge="1">
          <mxGeometry relative="1" as="geometry" />
        </mxCell>
        <mxCell id="hVP8yvyoXI02nTNWTHge-10" style="edgeStyle=orthogonalEdgeStyle;shape=connector;rounded=1;orthogonalLoop=1;jettySize=auto;html=1;exitX=0.5;exitY=0;exitDx=0;exitDy=0;entryX=0.5;entryY=1;entryDx=0;entryDy=0;labelBackgroundColor=default;strokeColor=#FFFF66;strokeWidth=2;align=center;verticalAlign=middle;fontFamily=Helvetica;fontSize=12;fontColor=#FFFFFF;endArrow=classic;" parent="1" source="hVP8yvyoXI02nTNWTHge-1" target="1dqqtLo0ICrxFf-IUxEB-24" edge="1">
          <mxGeometry relative="1" as="geometry" />
        </mxCell>
        <mxCell id="hVP8yvyoXI02nTNWTHge-1" value="&lt;font face=&quot;Lucida Console&quot;&gt;_baseContainer&lt;br&gt;Control&lt;/font&gt;" style="rounded=1;whiteSpace=wrap;html=1;fillColor=#003300;strokeColor=#B266FF;fontColor=#FFFFFF;strokeWidth=2;" parent="1" vertex="1">
          <mxGeometry x="99" y="460" width="120" height="60" as="geometry" />
        </mxCell>
        <mxCell id="hVP8yvyoXI02nTNWTHge-9" style="edgeStyle=orthogonalEdgeStyle;shape=connector;rounded=1;orthogonalLoop=1;jettySize=auto;html=1;exitX=0.5;exitY=0;exitDx=0;exitDy=0;entryX=0.5;entryY=1;entryDx=0;entryDy=0;labelBackgroundColor=default;strokeColor=#FFFF66;strokeWidth=2;align=center;verticalAlign=middle;fontFamily=Helvetica;fontSize=12;fontColor=#FFFFFF;endArrow=classic;" parent="1" source="hVP8yvyoXI02nTNWTHge-6" target="hVP8yvyoXI02nTNWTHge-8" edge="1">
          <mxGeometry relative="1" as="geometry" />
        </mxCell>
        <mxCell id="hVP8yvyoXI02nTNWTHge-6" value="&lt;font face=&quot;Lucida Console&quot;&gt;Panel&lt;/font&gt;" style="rounded=1;whiteSpace=wrap;html=1;fillColor=#003300;strokeColor=#33FF33;fontColor=#FFFFFF;strokeWidth=2;" parent="1" vertex="1">
          <mxGeometry x="99" y="340" width="120" height="60" as="geometry" />
        </mxCell>
        <mxCell id="hVP8yvyoXI02nTNWTHge-8" value="&lt;font face=&quot;Lucida Console&quot;&gt;UiRootPanel&lt;/font&gt;" style="rounded=1;whiteSpace=wrap;html=1;fillColor=#003300;strokeColor=#33FF33;fontColor=#FFFFFF;strokeWidth=2;" parent="1" vertex="1">
          <mxGeometry x="99" y="220" width="120" height="60" as="geometry" />
        </mxCell>
        <mxCell id="hVP8yvyoXI02nTNWTHge-11" value="&lt;font face=&quot;Lucida Console&quot;&gt;Slider&lt;br&gt;&lt;/font&gt;" style="rounded=1;whiteSpace=wrap;html=1;fillColor=#003300;strokeColor=#33FF33;fontColor=#FFFFFF;strokeWidth=2;" parent="1" vertex="1">
          <mxGeometry x="669" y="340" width="120" height="60" as="geometry" />
        </mxCell>
        <mxCell id="m8_Jk6lmm-8KzowkxfMQ-1" value="&lt;font face=&quot;Lucida Console&quot;&gt;ListBox&lt;br&gt;&lt;/font&gt;" style="rounded=1;whiteSpace=wrap;html=1;fillColor=#003300;strokeColor=#33FF33;fontColor=#FFFFFF;strokeWidth=2;" parent="1" vertex="1">
          <mxGeometry x="529" y="460" width="120" height="60" as="geometry" />
        </mxCell>
        <mxCell id="JD-5__aoNmLxi8L6_J8Z-3" style="edgeStyle=orthogonalEdgeStyle;shape=connector;rounded=1;orthogonalLoop=1;jettySize=auto;html=1;exitX=0.5;exitY=0;exitDx=0;exitDy=0;entryX=0.5;entryY=1;entryDx=0;entryDy=0;strokeColor=#FFFF66;strokeWidth=2;align=center;verticalAlign=middle;fontFamily=Helvetica;fontSize=12;fontColor=#FFFFFF;labelBackgroundColor=default;endArrow=classic;" edge="1" parent="1" source="JD-5__aoNmLxi8L6_J8Z-1" target="1dqqtLo0ICrxFf-IUxEB-4">
          <mxGeometry relative="1" as="geometry" />
        </mxCell>
        <mxCell id="JD-5__aoNmLxi8L6_J8Z-1" value="&lt;font face=&quot;Lucida Console&quot;&gt;_raptorTooltip&lt;br&gt;Base&lt;/font&gt;" style="rounded=1;whiteSpace=wrap;html=1;fillColor=#003300;strokeColor=#FFFF00;fontColor=#FFFFFF;strokeWidth=6;" vertex="1" parent="1">
          <mxGeometry x="250" y="940" width="120" height="60" as="geometry" />
        </mxCell>
        <mxCell id="JD-5__aoNmLxi8L6_J8Z-7" value="&lt;font face=&quot;Lucida Console&quot;&gt;MouseCursor&lt;/font&gt;" style="rounded=1;whiteSpace=wrap;html=1;fillColor=#003300;strokeColor=#33FF33;fontColor=#FFFFFF;strokeWidth=2;" vertex="1" parent="1">
          <mxGeometry x="109" y="940" width="120" height="60" as="geometry" />
        </mxCell>
        <mxCell id="JD-5__aoNmLxi8L6_J8Z-8" value="&lt;font face=&quot;Lucida Console&quot;&gt;LoadingSpinner&lt;/font&gt;" style="rounded=1;whiteSpace=wrap;html=1;fillColor=#003300;strokeColor=#33FF33;fontColor=#FFFFFF;strokeWidth=2;" vertex="1" parent="1">
          <mxGeometry x="-30" y="940" width="120" height="60" as="geometry" />
        </mxCell>
        <mxCell id="JD-5__aoNmLxi8L6_J8Z-11" value="&lt;font face=&quot;Lucida Console&quot;&gt;OutlineObject&lt;/font&gt;" style="rounded=1;whiteSpace=wrap;html=1;fillColor=#003300;strokeColor=#33FF33;fontColor=#FFFFFF;strokeWidth=2;" vertex="1" parent="1">
          <mxGeometry x="99" y="580" width="120" height="60" as="geometry" />
        </mxCell>
      </root>
    </mxGraphModel>
  </diagram>
</mxfile>
